<svg width="32" height="32" viewBox="0 0 32 32" fill="none" xmlns="http://www.w3.org/2000/svg">
<path fill-rule="evenodd" clip-rule="evenodd" d="M32 16C32 24.8366 24.8366 32 16 32C7.16344 32 0 24.8366 0 16C0 7.16344 7.16344 0 16 0C24.8366 0 32 7.16344 32 16ZM14 16C14 14.8954 14.8954 14 16 14C17.1046 14 18 14.8954 18 16C18 17.1046 17.1046 18 16 18C14.8954 18 14 17.1046 14 16ZM23.0032 28.1252C27.1861 25.704 30 21.1806 30 16L20 15.9998C20 17.4794 19.1967 18.7716 18.0024 19.4636L23.0032 28.1252ZM13.9976 19.4636L8.99679 28.1252C4.81395 25.704 2 21.1806 2 16L12 15.9998C12 17.4794 12.8033 18.7716 13.9976 19.4636ZM13.9998 12.5354L8.9989 3.87356C11.0584 2.68197 13.4495 1.99997 16 1.99997C18.5505 1.99997 20.9416 2.68198 23.0011 3.87356L18.0002 12.5354C17.4118 12.1949 16.7287 12.0001 16 12.0001C15.2713 12.0001 14.5882 12.1949 13.9998 12.5354Z" fill="#FFCC00"/>
</svg>
